# AST/ASF file generated using VICON BodyLanguage
# -----------------------------------------------
:version 1.10
:name VICON
:units
  mass 1.0
  length 0.45
  angle deg
:documentation
   .ast/.asf automatically generated from VICON data using
   VICON BodyBuilder and BodyLanguage model FoxedUp or BRILLIANT.MOD
:root
   order TX TY TZ RX RY RZ
   axis XYZ
   position 0 0 0  
   orientation 0 0 0 
:bonedata
  begin
     id 1 
     name lhipjoint
     direction 0.543289 -0.788407 0.288535 
     length 2.57127 
     axis 0 0 0  XYZ
  end
  begin
     id 2 
     name lfemur
     direction 0.34202 -0.939693 0  
     length 8.47298  
     axis 0 0 20  XYZ
    dof rx ry rz
    limits (-160.0 20.0)
           (-70.0 70.0)
           (-60.0 70.0)
  end
  begin
     id 3 
     name ltibia
     direction 0.34202 -0.939693 0   
     length 8.13367   
     axis 0 0 20   XYZ
    dof rx
    limits (-10.0 170.0)
  end
  begin
     id 4 
     name lfoot
     direction 0.114037 -0.313314 0.942778   
     length 2.67113   
     axis -90 7.62852e-016 20   XYZ
    dof rx rz
    limits (-45.0 90.0)
           (-70.0 20.0)
  end
  begin
     id 5 
     name ltoes
     direction 1.536e-011 -4.21847e-011 1   
     length 1.32217   
     axis -90 7.62852e-016 20   XYZ
    dof rx
    limits (-90.0 20.0)
  end
  begin
     id 6 
     name rhipjoint
     direction -0.571293 -0.770752 0.282074   
     length 2.63017  
     axis 0 0 0  XYZ 
  end
  begin
     id 7 
     name rfemur
     direction -0.34202 -0.939693 0   
     length 8.60885   
     axis 0 0 -20   XYZ
    dof rx ry rz
    limits (-160.0 20.0)
           (-70.0 70.0)
           (-70.0 60.0)
  end
  begin
     id 8 
     name rtibia
     direction -0.34202 -0.939693 0   
     length 8.07673   
     axis 0 0 -20   XYZ
    dof rx
    limits (-10.0 170.0)
 end
 begin
     id 9 
     name rfoot
     direction -0.121336 -0.333368 0.934956   
     length 2.81602  
     axis -90 -7.62852e-016 -20   XYZ
    dof rx rz
    limits (-45.0 90.0)
           (-20.0 70.0)
  end
  begin
     id 10 
     name rtoes
     direction -1.53491e-011 -4.21808e-011 1   
     length 1.38905   
     axis -90 -7.62852e-016 -20   XYZ
    dof rx
    limits (-90.0 20.0)
  end
  begin
     id 11 
     name lowerback
     direction 0.0136776 0.999869 -0.00861835   
     length 2.14087   
     axis 0 0 0   XYZ
    dof rx ry rz
    limits (-20.0 45.0)
           (-30.0 30.0)
           (-30.0 30.0)
  end
  begin
     id 12 
     name upperback
     direction -0.00789158 0.999804 0.0181308   
     length 2.14151   
     axis 0 0 0   XYZ
    dof rx ry rz
    limits (-20.0 45.0)
           (-30.0 30.0)
           (-30.0 30.0)
  end
  begin
     id 13 
     name thorax
     direction -0.0135231 0.999666 0.0220247   
     length 2.13644   
     axis 0 0 0   XYZ
    dof rx ry rz
    limits (-20.0 45.0)
           (-30.0 30.0)
           (-30.0 30.0)
  end
  begin
     id 14 
     name lowerneck
     direction -0.0392259 0.997317 0.0618018   
     length 1.65045   
     axis 0 0 0   XYZ
    dof rx ry rz
    limits (-20.0 45.0)
           (-30.0 30.0)
           (-30.0 30.0)
  end
  begin
     id 15 
     name upperneck
     direction 0.0765547 0.994276 -0.0745319   
     length 1.66045   
     axis 0 0 0   XYZ
    dof rx ry rz
    limits (-20.0 45.0)
           (-30.0 30.0)
           (-30.0 30.0)
  end
  begin
     id 16
     name head
     direction 0.0241564 0.999031 -0.036785  
     length 1.66594  
     axis 0 0 0   XYZ
    dof rx ry rz
    limits (-20.0 45.0)
           (-30.0 30.0)
           (-30.0 30.0)
  end
  begin
     id 17 
     name lclavicle
     direction 0.967398 0.249018 0.0461573  
     length 3.75176  
     axis 0 0 0   XYZ
    dof ry rz
    limits (-20.0 10.0)
           (0.0 20.0)
  end
  begin
     id 18 
     name lhumerus
     direction 1 -4.48963e-011 -3.05005e-027   
     length 5.93342   
     axis 180 -30 -90   XYZ
    dof rx ry rz
    limits (-60.0 90.0)
           (-90.0 90.0)
           (-90.0 90.0)
  end
  begin
     id 19
     name lradius
     direction 1 -4.48957e-011 1.07006e-026   
     length 3.94763   
     axis 180 -30 -90   XYZ
    dof rx
    limits (-10.0 170.0)
  end
  begin
     id 20
     name lwrist
     direction 1 -4.48978e-011 1.92422e-026   
     length 1.97382   
     axis -1.18182e-014 90 90   XYZ
    dof ry
    limits (-180.0 0.0)
 end
  begin
     id 21 
     name lhand
     direction 1 -4.48931e-011 3.84844e-026   
     length 0.560187   
     axis -2.45563e-014 90 90   XYZ
    dof rx rz
    limits (-90.0 90.0)
           (-45.0 45.0)
  end
  begin
     id 22 
     name lfingers
     direction 1 -4.48952e-011 7.69687e-026   
     length 0.451637   
     axis -4.91126e-014 90 90   XYZ
    dof rx
    limits (0.0 90.0)
  end
  begin
     id 23
     name lthumb
     direction 0.707107 -6.34901e-011 0.707107   
     length 0.648463   
     axis -90 45 2.85299e-015   XYZ
    dof rx rz
    limits (-45.0 45.0)
           (-45.0 45.0)
  end
  begin
     id 24 
     name rclavicle
     direction -0.965946 0.258716 0.00371831   
     length 3.63667  
     axis 0 0 0   XYZ 
    dof ry rz
    limits (-10.0 20.0)
           (-20.0 0.0)
  end
  begin
     id 25 
     name rhumerus
     direction -1 -4.48966e-011 -1.78361e-028  
     length 6.28647   
     axis 180 30 90   XYZ
    dof rx ry rz
    limits (-90.0 60.0)
           (-90.0 90.0)
           (-90.0 90.0)
  end
  begin
     id 26 
     name rradius
     direction -1 -4.48961e-011 1.05248e-026   
     length 3.81645   
     axis 180 30 90   XYZ
    dof rx
    limits (-10.0 170.0)
  end
  begin
     id 27 
     name rwrist
     direction -1 -4.48979e-011 1.92422e-026   
     length 1.90822   
     axis -1.18182e-014 -90 -90   XYZ
    dof ry
    limits (-180.0 0.0)
  end
  begin
     id 28
     name rhand
     direction -1 -4.48937e-011 3.84844e-026   
     length 0.646185   
     axis -2.45563e-014 -90 -90   XYZ
    dof rx rz
    limits (-90.0 90.0)
           (-45.0 45.0)
  end
  begin
     id 29
     name rfingers
     direction -1 -4.48953e-011 7.69687e-026   
     length 0.520971   
     axis -4.91126e-014 -90 -90   XYZ
    dof rx
    limits (0.0 90.0)
  end
  begin
     id 30
     name rthumb
     direction -0.707107 -6.3494e-011 0.707107   
     length 0.748013   
     axis -90 -45 -2.85299e-015   XYZ
    dof rx rz
    limits (-45.0 45.0)
           (-45.0 45.0)
  end
:hierarchy
  begin
    root lhipjoint rhipjoint lowerback
    lhipjoint lfemur
    lfemur ltibia
    ltibia lfoot
    lfoot ltoes
    rhipjoint rfemur
    rfemur rtibia
    rtibia rfoot
    rfoot rtoes
    lowerback upperback
    upperback thorax
    thorax lowerneck lclavicle rclavicle
    lowerneck upperneck
    upperneck head
    lclavicle lhumerus
    lhumerus lradius
    lradius lwrist
    lwrist lhand lthumb
    lhand lfingers
    rclavicle rhumerus
    rhumerus rradius
    rradius rwrist
    rwrist rhand rthumb
    rhand rfingers
  end

#!OML:ASF H:\HAZMAT1\Patient Classification 1\Patient 3\Session 1\dancer.ASF
:FULLY-SPECIFIED
:DEGREES
76
upperback 0.519368 -3.033460 -1.689790
rfoot -6.069160 -6.051500
lradius 73.296997
lthumb 5.171750 48.242001
rradius 81.128502
lwrist -0.974470
rhand -26.389799 -17.103701
rhumerus 71.755402 -13.384100 -57.296501
lowerneck -1.371440 -2.117320 4.250060
lhand -21.209801 18.325100
ltibia 51.778198
head 14.266200 -0.326608 -0.592922
rwrist -7.924350
lfingers 7.125020
rtoes 10.688300
lowerback -6.099180 -2.068270 4.637830
rfingers 7.125020
lclavicle -0.000000 -0.000000
upperneck 40.871899 -3.233720 1.131980
rfemur -36.206799 -3.161810 23.926100
thorax 3.627640 -1.400230 -4.630870
rclavicle -0.000000 -0.000000
rtibia 79.685303
lfoot -28.890900 -7.281740
lhumerus 79.290802 -1.832540 58.116001
rthumb 0.169288 -47.083401
root 9.984830 18.124001 18.355301 353.097992 42.516701 -9.190340
ltoes 12.758300
lfemur -9.896670 -371.312988 -20.152100
77
upperback -4.766700 -6.854870 1.813180
rfoot -16.042200 -5.106570
lradius 104.739998
lthumb -10.084400 40.338699
rradius 122.796997
lwrist -12.991500
rhand -36.725399 -20.523899
rhumerus 47.225700 -15.280000 -61.608601
lowerneck -6.002390 -1.554050 -1.082410
lhand -37.010101 10.600400
ltibia 62.877201
head 15.322800 -0.475057 1.114150
rwrist -7.202460
lfingers 7.125020
rtoes 11.314900
lowerback -7.041660 -5.040080 4.849510
rfingers 7.125020
lclavicle -0.000000 -0.000000
upperneck 40.691799 -2.325590 2.697920
rfemur -35.118000 14.126000 20.997200
thorax -1.358920 -3.474000 -1.193070
rclavicle -0.000000 -0.000000
rtibia 66.164299
lfoot -30.424299 -15.727900
lhumerus 48.767101 -4.112940 62.683201
rthumb -9.809720 -50.275398
root 10.862100 17.229601 19.857300 342.765015 50.605000 -14.093000
ltoes 5.578910
lfemur -3.290370 -371.033997 -16.308001
78
upperback -6.544320 -9.081300 0.293507
rfoot -29.842600 -2.482060
lradius 130.492004
lthumb -28.538700 38.388901
rradius 144.306000
lwrist -26.119400
rhand -54.456600 -30.097099
rhumerus -31.585199 -35.572701 -47.949799
lowerneck -13.638400 -4.940560 -3.636210
lhand -56.211899 10.546800
ltibia 83.143097
head 12.368600 -3.045480 3.796770
rwrist 8.760420
lfingers 7.125020
rtoes -12.976800
lowerback -4.672760 -6.932640 0.754679
rfingers 7.125020
lclavicle -0.000000 -0.000000
upperneck 28.126600 -9.555670 12.028600
rfemur -36.489498 8.918880 24.234600
thorax -4.252920 -4.491410 -0.189572
rclavicle -0.000000 -0.000000
rtibia 81.661797
lfoot -28.488100 -21.329599
lhumerus 0.317740 -23.804300 74.310997
rthumb -26.860300 -58.209000
root 11.370200 15.788300 21.621700 329.822998 64.470497 -27.174200
ltoes 0.563896
lfemur -10.215900 -375.670013 -7.156480
79
upperback -6.267500 -4.375390 0.026564
rfoot -38.620701 3.519620
lradius 94.365799
lthumb -30.016199 51.174099
rradius 73.973801
lwrist -28.425501
rhand -53.345600 -29.922899
rhumerus -55.760101 -8.390610 -71.203598
lowerneck -4.599870 -8.265700 -9.327160
lhand -57.759300 23.589701
ltibia 111.665001
head -2.284510 -4.508630 5.254910
rwrist 16.538200
lfingers 7.125020
rtoes -24.449499
lowerback 0.635471 -3.491280 4.404000
rfingers 7.125020
lclavicle -0.000000 -0.000000
upperneck -13.986900 -9.450490 12.346600
rfemur -62.649101 -1.319090 25.430700
thorax -7.244810 -2.369960 -2.118420
rclavicle -0.000000 -0.000000
rtibia 107.877998
lfoot -24.607500 -20.885201
lhumerus -35.243599 -19.404699 95.846100
rthumb -25.796801 -58.193802
root 11.377000 13.474700 22.715000 311.213013 75.109100 -60.189301
ltoes -7.420920
lfemur -43.015701 -369.018005 8.915240
80
upperback 0.418614 -3.927730 -0.052338
rfoot -42.823502 -6.007850
lradius 38.233799
lthumb -20.198999 61.684502
rradius 43.167500
lwrist -21.522699
rhand -45.457100 -23.163099
rhumerus 5.925140 19.333300 -75.661903
lowerneck -5.208870 -3.322850 -2.221920
lhand -47.511501 32.714699
ltibia 137.125000
head -3.621540 -1.633670 2.364720
rwrist 18.236401
lfingers 7.125020
rtoes -22.603901
lowerback 13.765200 -3.472050 4.042630
rfingers 7.125020
lclavicle 0.000000 -0.000000
upperneck -14.357600 -3.464010 5.827030
rfemur -106.137001 -9.228450 29.436100
thorax -7.559340 -2.031760 -1.542510
rclavicle 0.000000 -0.000000
rtibia 132.957993
lfoot -26.356701 -35.090599
lhumerus 16.050699 -7.855800 79.391800
rthumb -18.223499 -52.329399
root 10.346200 10.475600 22.912300 281.584991 80.859497 -109.945999
ltoes -12.068200
lfemur -85.182602 -333.367004 11.531600
81
upperback 7.566200 2.006640 2.168350
rfoot -43.933601 -0.670953
lradius 21.180201
lthumb -9.073480 69.723503
rradius 29.063900
lwrist -14.846700
rhand -33.176201 -9.487220
rhumerus 55.008499 5.196400 -32.293701
lowerneck 1.952250 -3.455020 4.039920
lhand -35.962399 39.938599
ltibia 141.966995
head -2.114020 -2.309260 -1.481560
rwrist 19.284401
lfingers 7.125020
rtoes -29.410101
lowerback 24.274799 0.147967 4.662570
rfingers 7.125020
lclavicle 0.000000 0.000000
upperneck -5.082210 -4.614430 -2.849310
rfemur -126.900002 -20.760300 40.774300
thorax -5.089820 1.186800 -0.887776
rclavicle 0.000000 0.000000
rtibia 143.524002
lfoot -23.875000 -46.330299
lhumerus 60.446899 -8.560640 82.954597
rthumb -6.384340 -39.370998
root 11.516800 9.348820 22.832600 259.031006 78.274696 -148.024002
ltoes -10.977500
lfemur -105.084000 -318.191010 2.708200
82
upperback 9.704970 1.887180 -1.051910
rfoot -45.416801 -1.900370
lradius 31.204500
lthumb -26.291500 254.501999
rradius 25.782400
lwrist -14.124600
rhand -40.643299 -25.298300
rhumerus 59.617199 -19.722601 -39.499500
lowerneck 3.239480 -5.308160 -0.601627
lhand -53.862301 77.300102
ltibia 125.616997
head 2.480180 -3.081630 -1.291210
rwrist 21.694099
lfingers 7.125020
rtoes -38.564301
lowerback 16.881100 0.336588 6.206750
rfingers 7.125020
lclavicle 0.000000 0.000000
upperneck 9.975940 -6.312700 -4.183960
rfemur -119.856003 -21.737101 41.596699
thorax 1.170990 1.445780 -4.903550
rclavicle 0.000000 0.000000
rtibia 138.009003
lfoot -21.805201 -19.105801
lhumerus 64.285301 -19.101601 66.721001
rthumb -13.587800 -54.834900
root 15.924300 10.231200 23.188999 243.104996 73.595299 -186.660004
ltoes -5.927530
lfemur -97.891296 -341.976013 2.393630
83
upperback 9.260750 -1.498520 -0.736603
rfoot -11.464400 31.712299
lradius 34.570099
lthumb -21.256599 242.526993
rradius 31.731600
lwrist -24.749901
rhand -55.933899 -61.219002
rhumerus 59.052299 -20.142200 -45.367001
lowerneck 0.336328 -3.840750 2.779200
lhand -48.612301 88.618797
ltibia 99.291496
head 1.692380 -2.462610 -0.023681
rwrist 13.578600
lfingers 7.125020
rtoes -20.563101
lowerback 16.749800 -2.156150 4.346900
rfingers 7.125020
lclavicle 0.000000 0.000000
upperneck 5.734300 -5.164110 1.633530
rfemur -104.283997 -10.144900 42.743801
thorax 0.354446 -0.323477 -2.984940
rclavicle 0.000000 0.000000
rtibia 94.231598
lfoot -19.382999 -1.624770
lhumerus 64.920601 -12.547600 56.144501
rthumb -28.273001 -89.105499
root 21.306000 12.805400 24.648001 257.541992 56.065300 -197.503998
ltoes -3.554790
lfemur -109.286003 -357.442993 -1.511660
84
upperback 8.361950 5.170070 3.489490
rfoot -24.100300 -17.567499
lradius 27.117001
lthumb -19.932600 237.641006
rradius 36.676300
lwrist -29.341101
rhand -57.401901 -80.435097
rhumerus 55.398300 -16.812901 -46.649899
lowerneck -0.530172 -4.327460 7.387940
lhand -47.234402 266.639008
ltibia 95.518501
head 0.258928 -2.945830 -0.637788
rwrist 14.648900
lfingers 7.125020
rtoes -11.338900
lowerback 18.016701 2.662120 5.705070
rfingers 7.125020
lclavicle 0.000000 -0.000000
upperneck 1.071110 -5.913200 1.908340
rfemur -97.577003 -13.943000 22.434601
thorax -0.934290 2.835040 -0.470040
rclavicle 0.000000 -0.000000
rtibia 92.397697
lfoot -15.004700 -16.749300
lhumerus 66.899300 -9.377310 57.645599
rthumb -29.675200 108.081001
root 24.740299 13.538700 26.534901 272.056000 42.414299 -187.679993
ltoes 6.768960
lfemur -117.446999 -367.817993 -25.185699
85
upperback 8.606350 6.944480 6.443760
rfoot -25.316099 -31.100800
lradius 23.236799
lthumb -19.826300 243.054001
rradius 35.975899
lwrist -42.086102
rhand -58.242298 -268.941010
rhumerus 53.808201 -8.860440 -53.695499
lowerneck -1.503050 -4.124310 9.090050
lhand -47.123798 447.937012
ltibia 104.348999
head 0.863996 -2.798270 -1.021160
rwrist 14.390400
lfingers 7.125020
rtoes -7.904060
lowerback 18.512100 3.494270 5.877990
rfingers 7.125020
lclavicle -0.000000 -0.000000
upperneck 2.639450 -5.795470 1.763910
rfemur -66.257797 -24.601299 -14.720900
thorax -1.217230 3.831150 2.186920
rclavicle -0.000000 -0.000000
rtibia 60.880699
lfoot -27.374701 -18.923599
lhumerus 64.717300 -4.574840 61.969101
rthumb -30.476999 118.558998
root 26.398600 12.882800 29.194401 263.066010 27.960100 -186.408005
ltoes -16.132500
lfemur -116.474998 -353.325989 -20.470501
86
upperback 8.894330 9.371110 7.949350
rfoot -36.103802 -15.682700
lradius 18.561300
lthumb -14.011400 63.514000
rradius 33.449902
lwrist -49.037300
rhand -59.334900 -446.243011
rhumerus 56.790298 -12.958400 -51.880600
lowerneck -0.430694 -5.080980 10.738800
lhand -41.082802 394.006012
ltibia 102.783997
head -0.411291 -3.321410 -1.973520
rwrist 5.383160
lfingers 7.125020
rtoes -28.394800
lowerback 27.256500 4.542970 3.650980
rfingers 7.125020
lclavicle -0.000000 0.000000
upperneck -0.269242 -6.706510 -0.597114
rfemur -75.203697 -40.456402 -3.863720
thorax -5.882980 5.048340 3.643290
rclavicle -0.000000 0.000000
rtibia 76.375702
lfoot -28.275200 -18.747700
lhumerus 79.280602 -3.966980 71.464699
rthumb -31.518499 113.544998
root 27.623899 12.705200 32.885899 250.345993 14.394000 -190.667999
ltoes -21.710300
lfemur -119.353996 -344.075989 -19.284700
